<?xml version="1.0" encoding="iso-8859-1"?>
<!-- Uploaded to: SVG Repo, www.svgrepo.com, Transformed by: SVG Repo Mixer Tools -->
<svg height="800px" width="800px" version="1.1" id="Layer_1" xmlns="http://www.w3.org/2000/svg" xmlns:xlink="http://www.w3.org/1999/xlink" 
	 viewBox="0 0 504.32 504.32" xml:space="preserve">
<g transform="translate(1 1)">
	<path style="fill:#F2EDDA;" d="M174.36,208.92c0-9.387,7.68-17.067,17.067-17.067h34.133c9.387,0,17.067,7.68,17.067,17.067v8.533
		c0,14.507-11.093,25.6-25.6,25.6H199.96c-14.507,0-25.6-11.093-25.6-25.6V208.92z M310.893,191.854
		c9.387,0,17.067,7.68,17.067,17.067v8.533c0,14.507-11.093,25.6-25.6,25.6h-17.067c-14.507,0-25.6-11.093-25.6-25.6v-8.533
		c0-9.387,7.68-17.067,17.067-17.067H310.893z"/>
	<path style="fill:#AE938D;" d="M114.627,174.787l-8.533-34.133c0,0,0-136.533,145.067-136.533c30.72,0,51.2,8.533,42.667,25.6
		c85.333,0,85.333,93.867,85.333,93.867v42.667c-25.6,0-34.133-8.533-34.133-8.533s-34.133-34.133-34.133-68.267
		c-17.067,29.013-119.467,34.133-153.6,34.133c0,17.067-8.533,51.2-17.067,68.267c-17.067,0-17.067-17.067-17.067-17.067
		c-2.56,0-5.973,0.853-8.533,1.707V174.787z"/>
	<path style="fill:#FFD0A1;" d="M242.627,208.92c0-9.387-7.68-17.067-17.067-17.067h-34.133c-9.387,0-17.067,7.68-17.067,17.067
		v8.533l-34.133-25.6c8.533-17.067,17.067-51.2,17.067-68.267c34.133,0,136.533-5.12,153.6-34.133
		c0,34.133,34.133,68.267,34.133,68.267s8.533,8.533,34.133,8.533v8.533l-17.067,17.067l-34.133,25.6v-8.533
		c0-9.387-7.68-17.067-17.067-17.067H276.76c-9.387,0-17.067,7.68-17.067,17.067v8.533h-17.067V208.92z M217.027,243.054
		c14.507,0,25.6-11.093,25.6-25.6h17.067c0,14.507,11.093,25.6,25.6,25.6h17.067c14.507,0,25.6-11.093,25.6-25.6l34.133-25.6
		l17.067-17.067c9.387,0,17.067,7.68,17.067,17.067v34.133c0,9.387-7.68,17.067-17.067,17.067c0,0-25.6,68.267-42.667,93.867
		c-10.24,16.213-25.6,42.667-85.333,42.667s-75.093-26.453-85.333-42.667c-17.067-25.6-42.667-93.867-42.667-93.867
		c-9.387,0-17.067-7.68-17.067-17.067v-34.133c0-6.827,3.413-11.947,8.533-15.36c2.56-0.853,5.12-1.707,8.533-1.707
		c0,0,0,17.067,17.067,17.067l34.133,25.6c0,14.507,11.093,25.6,25.6,25.6H217.027z"/>
	<path style="fill:#BFFF05;" d="M413.293,345.454c0,9.387-7.68,17.067-17.067,17.067s-17.067-7.68-17.067-17.067
		s7.68-17.067,17.067-17.067S413.293,336.067,413.293,345.454"/>
	<path style="fill:#F2EDDA;" d="M464.493,464.92h25.6c5.12,0,8.533,4.267,8.533,8.533v25.6H3.693v-25.6
		c0-4.267,4.267-8.533,8.533-8.533h17.067h187.733h68.267h162.133H464.493z"/>
	<path style="fill:#80D6FA;" d="M310.893,413.72c53.76,0,92.16,4.267,118.613,11.093c0,0,17.92,5.973,17.92,40.107H285.293
		l17.067-34.133L310.893,413.72z M199.96,430.787l17.067,34.133H29.293c0-25.6,17.067-32.427,17.067-32.427
		c25.6-11.093,69.973-18.773,145.067-18.773L199.96,430.787z"/>
	<polygon style="fill:#AE938D;" points="302.36,430.787 285.293,464.92 217.027,464.92 199.96,430.787 251.16,430.787 	"/>
</g>
<path style="fill:#51565F;" d="M499.627,504.32c-2.56,0-4.267-1.707-4.267-4.267v-25.6c0-2.56-1.707-4.267-4.267-4.267H13.227
	c-2.56,0-4.267,1.707-4.267,4.267v25.6c0,2.56-1.707,4.267-4.267,4.267s-4.267-1.707-4.267-4.267v-25.6
	c0-6.827,5.973-12.8,12.8-12.8h448v-45.227l-52.053-52.053c-3.413,2.56-7.68,3.413-11.947,3.413
	c-11.947,0-21.333-9.387-21.333-21.333c0-11.947,9.387-21.333,21.333-21.333s21.333,9.387,21.333,21.333
	c0,4.267-1.707,8.533-3.413,11.947l53.76,53.76c0.853,0.853,0.853,1.707,0.853,3.413v46.933h21.333c6.827,0,12.8,5.973,12.8,12.8
	v25.6C503.893,502.614,502.187,504.32,499.627,504.32z M397.227,333.654c-6.827,0-12.8,5.973-12.8,12.8
	c0,6.827,5.973,12.8,12.8,12.8s12.8-5.973,12.8-12.8C410.027,339.627,404.053,333.654,397.227,333.654z M47.36,437.76
	c-1.707,0-3.413-0.853-4.267-2.56c-0.853-2.56,0-4.267,2.56-5.973c29.867-12.8,78.507-19.627,146.773-19.627
	c1.707,0,3.413,0.853,3.413,2.56l8.533,17.067c0.853,1.707,0,4.267-1.707,5.973c-1.707,0.853-4.267,0-5.973-1.707l-7.68-14.507
	c-65.707,0-112.64,6.827-140.8,18.773C48.213,437.76,47.36,437.76,47.36,437.76z M303.36,436.054c-0.853,0-1.707,0-1.707-0.853
	c-1.707-0.853-2.56-3.413-1.707-5.973l8.533-17.067c0.853-2.56,4.267-2.56,6.827-2.56c48.64,0,88.747,3.413,117.76,11.093
	c2.56,0.853,3.413,2.56,3.413,5.12c-0.853,2.56-2.56,3.413-5.12,3.413c-28.16-6.827-67.413-10.24-115.2-10.24l0,0l-7.68,14.507
	C306.773,435.2,305.067,436.054,303.36,436.054z M252.16,436.054c-2.56,0-4.267-1.707-4.267-4.267V414.72
	c0-2.56,1.707-4.267,4.267-4.267c2.56,0,4.267,1.707,4.267,4.267v17.067C256.427,434.347,254.72,436.054,252.16,436.054z
	 M252.16,384.854c-59.733,0-76.8-26.453-87.893-42.667l-1.707-1.707c-15.36-23.04-37.547-79.36-41.813-92.16
	c-10.24-1.707-17.92-10.24-17.92-21.333v-34.133c0-11.947,9.387-21.333,21.333-21.333c2.56,0,4.267,1.707,4.267,4.267
	c0,1.707,0.853,11.093,10.24,12.8c7.68-17.067,15.36-47.787,15.36-64c0-2.56,1.707-4.267,4.267-4.267
	c52.907,0,135.68-8.533,150.187-32.427c0.853-1.707,2.56-2.56,5.12-1.707c1.707,0.853,3.413,2.56,3.413,4.267
	c0,31.573,32.427,64.853,33.28,64.853c1.707,1.707,1.707,4.267,0,5.973c-1.707,1.707-4.267,1.707-5.973,0
	s-29.013-29.867-34.133-61.44C279.467,125.44,185.6,128,164.267,128c-0.853,17.067-8.533,46.08-16.213,62.293l24.747,18.773
	c0-11.947,9.387-21.333,21.333-21.333h34.133c11.947,0,21.333,9.387,21.333,21.333v8.533c0,16.213-13.653,29.867-29.867,29.867
	h-17.067c-15.36,0-29.013-11.947-29.867-27.307l-31.573-23.893c-12.8-0.853-17.92-9.387-19.627-16.213
	c-5.12,1.707-9.387,6.827-9.387,11.947v34.133c0,6.827,5.973,12.8,12.8,12.8c1.707,0,3.413,0.853,4.267,2.56
	c0,0.853,25.6,68.267,41.813,93.013l1.707,1.707c10.24,15.36,25.6,38.4,80.213,38.4s69.973-23.04,80.213-38.4l1.707-1.707
	c16.213-24.747,41.813-92.16,41.813-93.013c0.853-1.707,2.56-2.56,4.267-2.56c6.827,0,12.8-5.973,12.8-12.8V192
	c0-6.827-5.973-12.8-12.8-12.8c-2.56,0-4.267-1.707-4.267-4.267v-51.2c0-3.413-0.853-89.6-81.067-89.6
	c-1.707,0-2.56-0.853-3.413-1.707c-0.853-0.853-0.853-2.56,0-4.267c2.56-5.12,0.853-8.533,0.853-9.387
	c-4.267-6.827-18.773-10.24-39.253-10.24c-139.093,0-140.8,127.147-140.8,132.267c0,2.56-1.707,4.267-4.267,4.267l0,0
	c-2.56,0-4.267-1.707-4.267-4.267c0-1.707,1.707-140.8,149.333-140.8c14.507,0,39.253,1.707,46.933,14.507
	c1.707,2.56,2.56,5.973,1.707,11.093c82.773,4.267,83.627,97.28,83.627,98.133v47.787c9.387,1.707,17.067,10.24,17.067,20.48v34.133
	c0,11.093-7.68,19.627-17.92,21.333c-5.12,12.8-26.453,69.12-41.813,92.16l-1.707,1.707
	C328.96,358.4,311.893,384.854,252.16,384.854z M179.627,218.454c0,11.947,9.387,21.333,21.333,21.333h17.067
	c11.947,0,21.333-9.387,21.333-21.333v-8.533c0-6.827-5.973-12.8-12.8-12.8h-34.133c-6.827,0-12.8,5.973-12.8,12.8V218.454
	L179.627,218.454L179.627,218.454z M260.693,333.654h-17.067c-2.56,0-4.267-1.707-4.267-4.267s1.707-4.267,4.267-4.267h17.067
	c2.56,0,4.267,1.707,4.267,4.267S263.253,333.654,260.693,333.654z M286.293,308.054c-0.853,0-17.067,0-34.133-7.68
	c-17.067,7.68-33.28,7.68-34.133,7.68c-2.56,0-4.267-1.707-4.267-4.267c0-2.56,1.707-4.267,4.267-4.267c0,0,16.213,0,32.427-7.68
	c0.853-0.853,2.56-0.853,3.413,0c16.213,7.68,32.427,7.68,32.427,7.68c2.56,0,4.267,1.707,4.267,4.267
	C290.56,306.347,288.853,308.054,286.293,308.054z M303.36,248.32h-17.067c-16.213,0-29.867-13.653-29.867-29.867v-8.533
	c0-11.947,9.387-21.333,21.333-21.333h34.133c11.947,0,21.333,9.387,21.333,21.333l27.307-20.48
	c1.707-1.707,4.267-0.853,5.973,0.853c0.853,0.853,0.853,1.707,0.853,2.56c0,1.707-0.853,2.56-1.707,3.413l-32.427,24.747
	C332.373,236.374,318.72,248.32,303.36,248.32z M277.76,197.12c-6.827,0-12.8,5.973-12.8,12.8v8.533
	c0,11.947,9.387,21.333,21.333,21.333h17.067c11.947,0,21.333-9.387,21.333-21.333l0,0l0,0v-8.533c0-6.827-5.973-12.8-12.8-12.8
	H277.76z"/>
</svg>